  0
SECTION
  2
HEADER
  9
$ACADVER
  1
AC1014
  9
$ACADMAINTVER
 70
     9
  9
$DWGCODEPAGE
  3
ANSI_1252
  9
$INSBASE
 10
0.0
 20
0.0
 30
0.0
  9
$EXTMIN
 10
-2680430.068109198
 20
-1672547.179547557
 30
-299.2890450820101
  9
$EXTMAX
 10
860276.0217899824
 20
1053820.515069022
 30
299.289045082009
  9
$LIMMIN
 10
0.0
 20
0.0
  9
$LIMMAX
 10
420.0
 20
297.0
  9
$ORTHOMODE
 70
     0
  9
$REGENMODE
 70
     1
  9
$FILLMODE
 70
     1
  9
$QTEXTMODE
 70
     0
  9
$MIRRTEXT
 70
     0
  9
$DRAGMODE
 70
     2
  9
$LTSCALE
 40
1.0
  9
$OSMODE
 70
    37
  9
$ATTMODE
 70
     1
  9
$TEXTSIZE
 40
100.0
  9
$TRACEWID
 40
1.0
  9
$TEXTSTYLE
  7
STANDARD
  9
$CLAYER
  8
TAVOLO_3
  9
$CELTYPE
  6
BYLAYER
  9
$CECOLOR
 62
   256
  9
$CELTSCALE
 40
1.0
  9
$DELOBJ
 70
     1
  9
$DISPSILH
 70
     0
  9
$DIMSCALE
 40
1.0
  9
$DIMASZ
 40
2.5
  9
$DIMEXO
 40
0.625
  9
$DIMDLI
 40
3.75
  9
$DIMRND
 40
0.0
  9
$DIMDLE
 40
0.0
  9
$DIMEXE
 40
1.25
  9
$DIMTP
 40
0.0
  9
$DIMTM
 40
0.0
  9
$DIMTXT
 40
2.5
  9
$DIMCEN
 40
2.5
  9
$DIMTSZ
 40
0.0
  9
$DIMTOL
 70
     0
  9
$DIMLIM
 70
     0
  9
$DIMTIH
 70
     0
  9
$DIMTOH
 70
     0
  9
$DIMSE1
 70
     0
  9
$DIMSE2
 70
     0
  9
$DIMTAD
 70
     1
  9
$DIMZIN
 70
     8
  9
$DIMBLK
  1

  9
$DIMASO
 70
     1
  9
$DIMSHO
 70
     1
  9
$DIMPOST
  1

  9
$DIMAPOST
  1

  9
$DIMALT
 70
     0
  9
$DIMALTD
 70
     3
  9
$DIMALTF
 40
0.03937007874016
  9
$DIMLFAC
 40
1.0
  9
$DIMTOFL
 70
     1
  9
$DIMTVP
 40
0.0
  9
$DIMTIX
 70
     0
  9
$DIMSOXD
 70
     0
  9
$DIMSAH
 70
     0
  9
$DIMBLK1
  1

  9
$DIMBLK2
  1

  9
$DIMSTYLE
  2
ISO-25
  9
$DIMCLRD
 70
     0
  9
$DIMCLRE
 70
     0
  9
$DIMCLRT
 70
     0
  9
$DIMTFAC
 40
1.0
  9
$DIMGAP
 40
0.625
  9
$DIMJUST
 70
     0
  9
$DIMSD1
 70
     0
  9
$DIMSD2
 70
     0
  9
$DIMTOLJ
 70
     0
  9
$DIMTZIN
 70
     8
  9
$DIMALTZ
 70
     0
  9
$DIMALTTZ
 70
     0
  9
$DIMFIT
 70
     3
  9
$DIMUPT
 70
     0
  9
$DIMUNIT
 70
     2
  9
$DIMDEC
 70
     2
  9
$DIMTDEC
 70
     2
  9
$DIMALTU
 70
     2
  9
$DIMALTTD
 70
     3
  9
$DIMTXSTY
  7
STANDARD
  9
$DIMAUNIT
 70
     0
  9
$LUNITS
 70
     2
  9
$LUPREC
 70
     4
  9
$SKETCHINC
 40
1.0
  9
$FILLETRAD
 40
0.0
  9
$AUNITS
 70
     0
  9
$AUPREC
 70
     0
  9
$MENU
  1
.
  9
$ELEVATION
 40
0.0
  9
$PELEVATION
 40
0.0
  9
$THICKNESS
 40
0.0
  9
$LIMCHECK
 70
     0
  9
$CHAMFERA
 40
0.0
  9
$CHAMFERB
 40
0.0
  9
$CHAMFERC
 40
0.0
  9
$CHAMFERD
 40
0.0
  9
$SKPOLY
 70
     0
  9
$TDCREATE
 40
2454762.941087963
  9
$TDUPDATE
 40
2458713.415743576
  9
$TDINDWG
 40
0.0724927778
  9
$TDUSRTIMER
 40
0.072491331
  9
$USRTIMER
 70
     1
  9
$ANGBASE
 50
0.0
  9
$ANGDIR
 70
     0
  9
$PDMODE
 70
     0
  9
$PDSIZE
 40
0.0
  9
$PLINEWID
 40
0.0
  9
$COORDS
 70
     1
  9
$SPLFRAME
 70
     0
  9
$SPLINETYPE
 70
     6
  9
$SPLINESEGS
 70
     8
  9
$ATTDIA
 70
     0
  9
$ATTREQ
 70
     1
  9
$HANDLING
 70
     1
  9
$HANDSEED
  5
E78
  9
$SURFTAB1
 70
     6
  9
$SURFTAB2
 70
     6
  9
$SURFTYPE
 70
     6
  9
$SURFU
 70
     6
  9
$SURFV
 70
     6
  9
$UCSNAME
  2

  9
$UCSORG
 10
0.0
 20
0.0
 30
0.0
  9
$UCSXDIR
 10
1.0
 20
0.0
 30
0.0
  9
$UCSYDIR
 10
0.0
 20
1.0
 30
0.0
  9
$PUCSNAME
  2

  9
$PUCSORG
 10
0.0
 20
0.0
 30
0.0
  9
$PUCSXDIR
 10
1.0
 20
0.0
 30
0.0
  9
$PUCSYDIR
 10
0.0
 20
1.0
 30
0.0
  9
$USERI1
 70
     0
  9
$USERI2
 70
     0
  9
$USERI3
 70
     0
  9
$USERI4
 70
     0
  9
$USERI5
 70
     0
  9
$USERR1
 40
0.0
  9
$USERR2
 40
0.0
  9
$USERR3
 40
0.0
  9
$USERR4
 40
0.0
  9
$USERR5
 40
0.0
  9
$WORLDVIEW
 70
     1
  9
$SHADEDGE
 70
     3
  9
$SHADEDIF
 70
    70
  9
$TILEMODE
 70
     1
  9
$MAXACTVP
 70
    48
  9
$PINSBASE
 10
0.0
 20
0.0
 30
0.0
  9
$PLIMCHECK
 70
     0
  9
$PEXTMIN
 10
1.000000000000000E+20
 20
1.000000000000000E+20
 30
1.000000000000000E+20
  9
$PEXTMAX
 10
-1.000000000000000E+20
 20
-1.000000000000000E+20
 30
-1.000000000000000E+20
  9
$PLIMMIN
 10
-6.350006103515625
 20
-6.349999904632568
  9
$PLIMMAX
 10
273.0499877929688
 20
209.5499939918518
  9
$UNITMODE
 70
     0
  9
$VISRETAIN
 70
     1
  9
$PLINEGEN
 70
     0
  9
$PSLTSCALE
 70
     1
  9
$TREEDEPTH
 70
  3020
  9
$PICKSTYLE
 70
     1
  9
$CMLSTYLE
  2
STANDARD
  9
$CMLJUST
 70
     0
  9
$CMLSCALE
 40
20.0
  9
$PROXYGRAPHICS
 70
     1
  9
$MEASUREMENT
 70
     1
  0
ENDSEC
  0
SECTION
  2
CLASSES
  0
CLASS
  1
ACDBDICTIONARYWDFLT
  2
AcDbDictionaryWithDefault
  3
ObjectDBX Classes
 90
        0
280
     0
281
     0
  0
CLASS
  1
ACDBPLACEHOLDER
  2
AcDbPlaceHolder
  3
ObjectDBX Classes
 90
        0
280
     0
281
     0
  0
CLASS
  1
LAYOUT
  2
AcDbLayout
  3
ObjectDBX Classes
 90
        0
280
     0
281
     0
  0
CLASS
  1
DICTIONARYVAR
  2
AcDbDictionaryVar
  3
ObjectDBX Classes
 90
        0
280
     0
281
     0
  0
CLASS
  1
WIPEOUT
  2
AcDbWipeout
  3
WipeOut|AutoCAD Express Tool|expresstools@autodesk.com
 90
      127
280
     0
281
     1
  0
CLASS
  1
WIPEOUTVARIABLES
  2
AcDbWipeoutVariables
  3
WipeOut|AutoCAD Express Tool|expresstools@autodesk.com
 90
        0
280
     0
281
     0
  0
CLASS
  1
MATERIAL
  2
AcDbMaterial
  3
ObjectDBX Classes
 90
     1153
280
     0
281
     0
  0
CLASS
  1
VISUALSTYLE
  2
AcDbVisualStyle
  3
ObjectDBX Classes
 90
     4095
280
     0
281
     0
  0
CLASS
  1
TABLESTYLE
  2
AcDbTableStyle
  3
ObjectDBX Classes
 90
     4095
280
     0
281
     0
  0
CLASS
  1
SCALE
  2
AcDbScale
  3
ObjectDBX Classes
 90
     1153
280
     0
281
     0
  0
CLASS
  1
MLEADERSTYLE
  2
AcDbMLeaderStyle
  3
ACDB_MLEADERSTYLE_CLASS
 90
     4095
280
     0
281
     0
  0
CLASS
  1
ACDBSECTIONVIEWSTYLE
  2
AcDbSectionViewStyle
  3
ObjectDBX Classes
 90
     1025
280
     0
281
     0
  0
CLASS
  1
ACDBDETAILVIEWSTYLE
  2
AcDbDetailViewStyle
  3
ObjectDBX Classes
 90
     1025
280
     0
281
     0
  0
CLASS
  1
ACDBASSOCPERSSUBENTMANAGER
  2
AcDbAssocPersSubentManager
  3
ObjectDBX Classes
 90
     1024
280
     1
281
     0
  0
CLASS
  1
ACDBPERSSUBENTMANAGER
  2
AcDbPersSubentManager
  3
AcDbPersSubentManager
 90
     1024
280
     1
281
     0
  0
CLASS
  1
ACSH_SWEEP_CLASS
  2
AcDbShSweep
  3
ObjectDBX Classes
 90
     1153
280
     1
281
     0
  0
CLASS
  1
ACAD_EVALUATION_GRAPH
  2
AcDbEvalGraph
  3
ObjectDBX Classes
 90
     1153
280
     1
281
     0
  0
CLASS
  1
ACSH_HISTORY_CLASS
  2
AcDbShHistory
  3
ObjectDBX Classes
 90
     1153
280
     1
281
     0
  0
CLASS
  1
ACDBASSOCNETWORK
  2
AcDbAssocNetwork
  3
ObjectDBX Classes
 90
     1025
280
     1
281
     0
  0
CLASS
  1
ACDBASSOCACTION
  2
AcDbAssocAction
  3
ObjectDBX Classes
 90
     1025
280
     1
281
     0
  0
CLASS
  1
ACDBASSOCALIGNEDDIMACTIONBODY
  2
AcDbAssocAlignedDimActionBody
  3
ObjectDBX Classes
 90
     1025
280
     1
281
     0
  0
CLASS
  1
ACDBASSOCOSNAPPOINTREFACTIONPARAM
  2
AcDbAssocOsnapPointRefActionParam
  3
ObjectDBX Classes
 90
     1025
280
     1
281
     0
  0
CLASS
  1
ACDBASSOCVERTEXACTIONPARAM
  2
AcDbAssocVertexActionParam
  3
ObjectDBX Classes
 90
     1025
280
     1
281
     0
  0
CLASS
  1
ACDBASSOCGEOMDEPENDENCY
  2
AcDbAssocGeomDependency
  3
ObjectDBX Classes
 90
     1025
280
     1
281
     0
  0
CLASS
  1
ACDBASSOCDEPENDENCY
  2
AcDbAssocDependency
  3
ObjectDBX Classes
 90
     1025
280
     1
281
     0
  0
CLASS
  1
ARC_DIMENSION
  2
AcDbArcDimension
  3
ObjectDBX Classes
 90
     1025
280
     0
281
     1
  0
CLASS
  1
DIMASSOC
  2
AcDbDimAssoc
  3
"AcDbDimAssoc|Product Desc:     AcDim ARX App For Dimension|Company:          Autodesk, Inc.|WEB Address:      www.autodesk.com"
 90
        0
280
     0
281
     0
  0
CLASS
  1
CELLSTYLEMAP
  2
AcDbCellStyleMap
  3
ObjectDBX Classes
 90
     1152
280
     0
281
     0
  0
CLASS
  1
ACAD_TABLE
  2
AcDbTable
  3
ObjectDBX Classes
 90
     1025
280
     0
281
     1
  0
CLASS
  1
TABLECONTENT
  2
AcDbTableContent
  3
ObjectDBX Classes
 90
     1152
280
     0
281
     0
  0
CLASS
  1
TABLEGEOMETRY
  2
AcDbTableGeometry
  3
ObjectDBX Classes
 90
     1152
280
     0
281
     0
  0
CLASS
  1
DATATABLE
  2
AcDbDataTable
  3
ObjectDBX Classes
 90
        0
280
     0
281
     0
  0
CLASS
  1
MULTILEADER
  2
AcDbMLeader
  3
ACDB_MLEADER_CLASS
 90
     1025
280
     0
281
     1
  0
CLASS
  1
LIGHT
  2
AcDbLight
  3
SCENEOE
 90
     1025
280
     0
281
     1
  0
CLASS
  1
SUN
  2
AcDbSun
  3
SCENEOE
 90
     1153
280
     0
281
     0
  0
CLASS
  1
LWPOLYLINE
  2
AcDbPolyline
  3
ObjectDBX Classes
 90
        0
280
     0
281
     1
  0
CLASS
  1
HATCH
  2
AcDbHatch
  3
ObjectDBX Classes
 90
        0
280
     0
281
     1
  0
CLASS
  1
XRECORD
  2
AcDbXrecord
  3
ObjectDBX Classes
 90
        0
280
     0
281
     0
  0
ENDSEC
  0
SECTION
  2
TABLES
  0
TABLE
  2
VPORT
  5
8
102
{ACAD_XDICTIONARY
360
E6E
102
}
330
0
100
AcDbSymbolTable
 70
     1
  0
VPORT
  5
25A
330
8
100
AcDbSymbolTableRecord
100
AcDbViewportTableRecord
  2
*ACTIVE
 70
     0
 10
0.0
 20
0.0
 11
1.0
 21
1.0
 12
5771.997569792082
 22
480.4575041872413
 13
0.0
 23
0.0
 14
10.0
 24
10.0
 15
10.0
 25
10.0
 16
0.0
 26
0.0
 36
1.0
 17
0.0
 27
0.0
 37
0.0
 40
12697.21503592887
 41
1.496666666666667
 42
50.0
 43
0.0
 44
0.0
 50
0.0
 51
0.0
 71
     0
 72
  1000
 73
     1
 74
     3
 75
     0
 76
     0
 77
     0
 78
     0
1001
ACAD_NAV_VCDISPLAY
1070
     3
  0
ENDTAB
  0
TABLE
  2
LTYPE
  5
5
330
0
100
AcDbSymbolTable
 70
     1
  0
LTYPE
  5
14
330
5
100
AcDbSymbolTableRecord
100
AcDbLinetypeTableRecord
  2
BYBLOCK
 70
     0
  3

 72
    65
 73
     0
 40
0.0
  0
LTYPE
  5
15
330
5
100
AcDbSymbolTableRecord
100
AcDbLinetypeTableRecord
  2
BYLAYER
 70
     0
  3

 72
    65
 73
     0
 40
0.0
  0
LTYPE
  5
16
330
5
100
AcDbSymbolTableRecord
100
AcDbLinetypeTableRecord
  2
CONTINUOUS
 70
     0
  3
Solid line
 72
    65
 73
     0
 40
0.0
  0
ENDTAB
  0
TABLE
  2
LAYER
  5
2
102
{ACAD_XDICTIONARY
360
2C0
102
}
330
0
100
AcDbSymbolTable
 70
     5
  0
LAYER
  5
10
102
{ACAD_XDICTIONARY
360
2B7
102
}
330
2
100
AcDbSymbolTableRecord
100
AcDbLayerTableRecord
  2
0
 70
     0
 62
     7
  6
CONTINUOUS
  0
LAYER
  5
89
102
{ACAD_XDICTIONARY
360
2B9
102
}
330
2
100
AcDbSymbolTableRecord
100
AcDbLayerTableRecord
  2
TAVOLO_2
 70
     0
 62
     2
  6
CONTINUOUS
  0
LAYER
  5
8A
102
{ACAD_XDICTIONARY
360
2BB
102
}
330
2
100
AcDbSymbolTableRecord
100
AcDbLayerTableRecord
  2
TAVOLO_3
 70
     0
 62
     4
  6
CONTINUOUS
  0
LAYER
  5
37F
330
2
100
AcDbSymbolTableRecord
100
AcDbLayerTableRecord
  2
DEFPOINTS
 70
     0
 62
     7
  6
CONTINUOUS
  0
LAYER
  5
75D
330
2
100
AcDbSymbolTableRecord
100
AcDbLayerTableRecord
  2
ADSK_SYSTEM_LIGHTS
 70
     5
 62
     7
  6
CONTINUOUS
1001
ACAECLAYERSTANDARD
1000

1000
Special layer for Autodesk lights, do not use
  0
ENDTAB
  0
TABLE
  2
STYLE
  5
3
330
0
100
AcDbSymbolTable
 70
     1
  0
STYLE
  5
11
330
3
100
AcDbSymbolTableRecord
100
AcDbTextStyleTableRecord
  2
STANDARD
 70
     0
 40
0.0
 41
1.0
 50
0.0
 71
     0
 42
100.0
  3
txt
  4

  0
ENDTAB
  0
TABLE
  2
VIEW
  5
6
330
0
100
AcDbSymbolTable
 70
     0
  0
ENDTAB
  0
TABLE
  2
UCS
  5
7
330
0
100
AcDbSymbolTable
 70
     0
  0
ENDTAB
  0
TABLE
  2
APPID
  5
9
330
0
100
AcDbSymbolTable
 70
    11
  0
APPID
  5
12
330
9
100
AcDbSymbolTableRecord
100
AcDbRegAppTableRecord
  2
ACAD
 70
     0
  0
APPID
  5
2C6
330
9
100
AcDbSymbolTableRecord
100
AcDbRegAppTableRecord
  2
ACAD_NAV_VCDISPLAY
 70
     0
  0
APPID
  5
2D8
330
9
100
AcDbSymbolTableRecord
100
AcDbRegAppTableRecord
  2
ACAD_EXEMPT_FROM_CAD_STAND
 70
     0
  0
APPID
  5
395
330
9
100
AcDbSymbolTableRecord
100
AcDbRegAppTableRecord
  2
ACAD_STEPID
 70
     0
  0
APPID
  5
762
330
9
100
AcDbSymbolTableRecord
100
AcDbRegAppTableRecord
  2
ACAD_MATERIAL_MAPPER
 70
     0
  0
APPID
  5
763
330
9
100
AcDbSymbolTableRecord
100
AcDbRegAppTableRecord
  2
ACAD_MATERIAL_MAPPER_2
 70
     0
  0
APPID
  5
CAD
330
9
100
AcDbSymbolTableRecord
100
AcDbRegAppTableRecord
  2
ACDBDYNAMICBLOCKTRUENAME2
 70
     0
  0
APPID
  5
D0B
330
9
100
AcDbSymbolTableRecord
100
AcDbRegAppTableRecord
  2
CONTENTBLOCKICON
 70
     0
  0
APPID
  5
D47
330
9
100
AcDbSymbolTableRecord
100
AcDbRegAppTableRecord
  2
ACAD_MLEADERVER
 70
     0
  0
APPID
  5
D54
330
9
100
AcDbSymbolTableRecord
100
AcDbRegAppTableRecord
  2
ACAD_OBJECT_CHANGE_GUID
 70
     0
  0
APPID
  5
E1F
330
9
100
AcDbSymbolTableRecord
100
AcDbRegAppTableRecord
  2
ACAECLAYERSTANDARD
 70
     0
  0
ENDTAB
  0
TABLE
  2
DIMSTYLE
  5
A
330
0
100
AcDbSymbolTable
 70
     1
  0
DIMSTYLE
105
27
102
{ACAD_REACTORS
330
37E
330
399
330
420
330
430
330
43B
330
453
330
467
330
47F
330
497
330
4AF
102
}
330
A
100
AcDbSymbolTableRecord
100
AcDbDimStyleTableRecord
  2
ISO-25
 70
     0
  3

  4

  5

  6

  7

 40
1.0
 41
2.5
 42
0.625
 43
3.75
 44
1.25
 45
0.0
 46
0.0
 47
0.0
 48
0.0
140
2.5
141
2.5
142
0.0
143
0.03937007874016
144
1.0
145
0.0
146
1.0
147
0.625
 71
     0
 72
     0
 73
     0
 74
     0
 75
     0
 76
     0
 77
     1
 78
     8
170
     0
171
     3
172
     1
173
     0
174
     0
175
     0
176
     0
177
     0
178
     0
270
     2
271
     2
272
     2
273
     2
274
     3
340
11
275
     0
280
     0
281
     0
282
     0
283
     0
284
     8
285
     0
286
     0
287
     3
288
     0
  0
ENDTAB
  0
TABLE
  2
BLOCK_RECORD
  5
1
330
0
100
AcDbSymbolTable
 70
    14
  0
BLOCK_RECORD
  5
1F
102
{ACAD_XDICTIONARY
360
38C
102
}
330
1
100
AcDbSymbolTableRecord
100
AcDbBlockTableRecord
  2
*U
1001
ACDBDYNAMICBLOCKTRUENAME2
1000
*MODEL_SPACE
  0
BLOCK_RECORD
  5
55
330
1
100
AcDbSymbolTableRecord
100
AcDbBlockTableRecord
  2
*PAPER_SPACE
  0
BLOCK_RECORD
  5
17D
330
1
100
AcDbSymbolTableRecord
100
AcDbBlockTableRecord
  2
BLOKO
1001
ACAD
1000
DesignCenter Data
1002
{
1070
     1
1070
     4
1002
}
1001
CONTENTBLOCKICON
1071
        0
1004
2800000020000000200000000100080000000000000400000000000000000000000000000000000000000000000080000080000000808000800000008000800080800000C0C0C000C0DCC000F0CAA6000020400000206000002080000020A0000020C0000020E00000400000004020000040400000406000004080000040A0
1004
000040C0000040E00000600000006020000060400000606000006080000060A0000060C0000060E00000800000008020000080400000806000008080000080A0000080C0000080E00000A0000000A0200000A0400000A0600000A0800000A0A00000A0C00000A0E00000C0000000C0200000C0400000C0600000C0800000C0
1004
A00000C0C00000C0E00000E0000000E0200000E0400000E0600000E0800000E0A00000E0C00000E0E00040000000400020004000400040006000400080004000A0004000C0004000E00040200000402020004020400040206000402080004020A0004020C0004020E000404000004040200040404000404060004040800040
1004
40A0004040C0004040E00040600000406020004060400040606000406080004060A0004060C0004060E00040800000408020004080400040806000408080004080A0004080C0004080E00040A0000040A0200040A0400040A0600040A0800040A0A00040A0C00040A0E00040C0000040C0200040C0400040C0600040C08000
1004
40C0A00040C0C00040C0E00040E0000040E0200040E0400040E0600040E0800040E0A00040E0C00040E0E00080000000800020008000400080006000800080008000A0008000C0008000E00080200000802020008020400080206000802080008020A0008020C0008020E00080400000804020008040400080406000804080
1004
008040A0008040C0008040E00080600000806020008060400080606000806080008060A0008060C0008060E00080800000808020008080400080806000808080008080A0008080C0008080E00080A0000080A0200080A0400080A0600080A0800080A0A00080A0C00080A0E00080C0000080C0200080C0400080C0600080C0
1004
800080C0A00080C0C00080C0E00080E0000080E0200080E0400080E0600080E0800080E0A00080E0C00080E0E000C0000000C0002000C0004000C0006000C0008000C000A000C000C000C000E000C0200000C0202000C0204000C0206000C0208000C020A000C020C000C020E000C0400000C0402000C0404000C0406000C0
1004
408000C040A000C040C000C040E000C0600000C0602000C0604000C0606000C0608000C060A000C060C000C060E000C0800000C0802000C0804000C0806000C0808000C080A000C080C000C080E000C0A00000C0A02000C0A04000C0A06000C0A08000C0A0A000C0A0C000C0A0E000C0C00000C0C02000C0C04000C0C06000
1004
C0C08000C0C0A000F0FBFF00A4A0A000808080000000FF0000FF000000FFFF00FF000000FF00FF00FFFF0000FFFFFF0000000000000000000000000000000000000000000000000000000000000000000000000000000000000000000000000000000000000000000000000000000000000000000000000000000000000000
1004
000000000000000000000000000000000000000000000000000000000000FEFE00FE00FEFE00FEFEFEFEFEFEFEFE00000000000000000000000000000000FE0000FE00FEFEFE00FEFE00FEFEFEFE00000000000000000000000000000000FEFEFEFEFEFEFE00FEFEFEFEFEFEFEFE0000000000000000000000000000000000
1004
00000000000000000000000000000000000000000000000000000000000000000000000000000000000000000000000000000000000000000000000000000000000000000000000000000000000000000000000000000000000000000000000000000000000000000000000000000000000000000000000000000000000000
1004
0000000000000000000000000000FEFEFEFE0000000000000000000000000000000000000000FEFEFEFEFEFEFEFE000000FE000000000000000000000000000000FEFEFEFEFE0000000000000000000000FE000000000000000000000000000000FE0000000000000000000000000000FE0000000000000000000000000000
1004
0000FE0000000000000000000000000000FE00000000000000000000000000000000FE0000000000000000000000000000FE000000000000000000000000000000FE000000000000000000000000000000FE000000000000000000000000000000FE0000000000000000000000000000FE0000000000000000000000000000
1004
0000FE0000000000000000000000000000FE00000000000000000000000000000000FE0000000000000000000000000000FE00000000000000000000000000000000FE0000000000000000000000000000FE00000000000000000000000000000000FE0000000000000000000000000000FE00000000000000000000000000
1004
000000FE00000000000000000000000000FE0000000000000000000000000000000000FE00000000000000000000000000FE00000000000000000000000000000000FE0000000000000000000000000000FE00000000000000000000000000000000FE0000000000000000000000000000FE00000000000000000000000000
1004
000000FE00000000000000000000000000FE000000000000FEFEFEFEFEFEFEFEFEFEFEFE00000000000000000000000000FE00000000000000000000000000000000000000000000000000000000000000FE000000000000000000000000000000000000000000000000000000000000000000000000000000000000000000
1004
0000000000000000000000000000000000000000000000000000000000000000000000000000000000000000000000000000000000000000
  0
BLOCK_RECORD
  5
1B8
330
1
100
AcDbSymbolTableRecord
100
AcDbBlockTableRecord
  2
CIRKLO_PUNKTOJ
1001
ACAD
1000
DesignCenter Data
1002
{
1070
     1
1070
     4
1002
}
1001
CONTENTBLOCKICON
1071
        0
1004
2800000020000000200000000100080000000000000400000000000000000000000000000000000000000000000080000080000000808000800000008000800080800000C0C0C000C0DCC000F0CAA6000020400000206000002080000020A0000020C0000020E00000400000004020000040400000406000004080000040A0
1004
000040C0000040E00000600000006020000060400000606000006080000060A0000060C0000060E00000800000008020000080400000806000008080000080A0000080C0000080E00000A0000000A0200000A0400000A0600000A0800000A0A00000A0C00000A0E00000C0000000C0200000C0400000C0600000C0800000C0
1004
A00000C0C00000C0E00000E0000000E0200000E0400000E0600000E0800000E0A00000E0C00000E0E00040000000400020004000400040006000400080004000A0004000C0004000E00040200000402020004020400040206000402080004020A0004020C0004020E000404000004040200040404000404060004040800040
1004
40A0004040C0004040E00040600000406020004060400040606000406080004060A0004060C0004060E00040800000408020004080400040806000408080004080A0004080C0004080E00040A0000040A0200040A0400040A0600040A0800040A0A00040A0C00040A0E00040C0000040C0200040C0400040C0600040C08000
1004
40C0A00040C0C00040C0E00040E0000040E0200040E0400040E0600040E0800040E0A00040E0C00040E0E00080000000800020008000400080006000800080008000A0008000C0008000E00080200000802020008020400080206000802080008020A0008020C0008020E00080400000804020008040400080406000804080
1004
008040A0008040C0008040E00080600000806020008060400080606000806080008060A0008060C0008060E00080800000808020008080400080806000808080008080A0008080C0008080E00080A0000080A0200080A0400080A0600080A0800080A0A00080A0C00080A0E00080C0000080C0200080C0400080C0600080C0
1004
800080C0A00080C0C00080C0E00080E0000080E0200080E0400080E0600080E0800080E0A00080E0C00080E0E000C0000000C0002000C0004000C0006000C0008000C000A000C000C000C000E000C0200000C0202000C0204000C0206000C0208000C020A000C020C000C020E000C0400000C0402000C0404000C0406000C0
1004
408000C040A000C040C000C040E000C0600000C0602000C0604000C0606000C0608000C060A000C060C000C060E000C0800000C0802000C0804000C0806000C0808000C080A000C080C000C080E000C0A00000C0A02000C0A04000C0A06000C0A08000C0A0A000C0A0C000C0A0E000C0C00000C0C02000C0C04000C0C06000
1004
C0C08000C0C0A000F0FBFF00A4A0A000808080000000FF0000FF000000FFFF00FF000000FF00FF00FFFF0000FFFFFF000000000000000000000000000000000000000000000000000000000000000000000000000000000000000000000000FEFE00000000000000000000000000000000000000000000000000FEFEFEFEFE
1004
0000FEFEFEFEFE00000000000000000000000000000000000000FE000000000000000000000000FE0000000000000000000000000000000000FE0000000000000000000000000000FE000000000000000000000000000000FE00000000000000000000000000000000FE00000000000000000000000000FE00000000000000
1004
0000000000000000000000FE0000000000000000000000FE0000000000000000000000000000000000000000FE000000000000000000FE00000000000000000000000000000000000000000000FE00000000000000FE000000000000000000000000000000000000000000000000FE0000000000FE0000FE00000000000000
1004
00000000000000000000FE0000000000FE00000000FE000000000000000000000000FE00000000000000000000000000FE00000000FE0000000000000000000000000000000000000000000000000000FE00000000FE000000000000000000FE00000000000000000000000000000000FE00000000FE0000000000FE000000
1004
00000000000000FE00000000000000000000FE0000FE00000000000000000000000000000000000000000000000000000000FE0000FE000000000000000000000000000000FE000000000000000000FE0000FE000000FE000000000000000000FE00000000000000000000000000000000FE00000000FE000000FE00000000
1004
000000000000000000000000000000000000FE00000000FE0000000000000000000000000000000000000000000000000000FE00000000FE0000000000000000000000000000000000000000000000000000FE00000000FE0000000000000000000000000000000000000000000000000000FE0000000000FE000000000000
1004
0000FE00000000FE00000000000000000000FE00000000000000FE00000000000000000000000000000000000000000000FE000000000000000000FE0000000000000000000000000000000000000000FE0000000000000000000000FE000000000000000000000000000000000000FE00000000000000000000000000FE00
1004
000000000000000000000000000000FE000000000000000000000000000000FE0000000000000000000000000000FE0000000000000000000000000000000000FE000000000000000000000000FE00000000000000000000000000000000000000FEFEFEFEFE000000FEFEFEFE000000000000000000000000000000000000
1004
00000000000000FEFEFE00000000000000000000000000000000000000000000000000000000000000000000000000000000000000000000
  0
BLOCK_RECORD
  5
380
330
1
100
AcDbSymbolTableRecord
100
AcDbBlockTableRecord
  2
*D4
  0
BLOCK_RECORD
  5
39A
330
1
100
AcDbSymbolTableRecord
100
AcDbBlockTableRecord
  2
*D5
  0
BLOCK_RECORD
  5
421
330
1
100
AcDbSymbolTableRecord
100
AcDbBlockTableRecord
  2
*D6
  0
BLOCK_RECORD
  5
431
330
1
100
AcDbSymbolTableRecord
100
AcDbBlockTableRecord
  2
*D7
  0
BLOCK_RECORD
  5
43C
330
1
100
AcDbSymbolTableRecord
100
AcDbBlockTableRecord
  2
*D8
  0
BLOCK_RECORD
  5
454
330
1
100
AcDbSymbolTableRecord
100
AcDbBlockTableRecord
  2
*D9
  0
BLOCK_RECORD
  5
468
330
1
100
AcDbSymbolTableRecord
100
AcDbBlockTableRecord
  2
*D10
  0
BLOCK_RECORD
  5
480
330
1
100
AcDbSymbolTableRecord
100
AcDbBlockTableRecord
  2
*D11
  0
BLOCK_RECORD
  5
498
330
1
100
AcDbSymbolTableRecord
100
AcDbBlockTableRecord
  2
*D12
  0
BLOCK_RECORD
  5
4B0
330
1
100
AcDbSymbolTableRecord
100
AcDbBlockTableRecord
  2
*D13
  0
BLOCK_RECORD
  5
4F3
330
1
100
AcDbSymbolTableRecord
100
AcDbBlockTableRecord
  2
*T14
  0
BLOCK_RECORD
  5
E5E
330
1
100
AcDbSymbolTableRecord
100
AcDbBlockTableRecord
  2
*X15
  0
ENDTAB
  0
ENDSEC
  0
SECTION
  2
BLOCKS
  0
BLOCK
  5
20
330
1F
100
AcDbEntity
  8
0
100
AcDbBlockBegin
  2
*U
 70
     1
 10
0.0
 20
0.0
 30
0.0
  3
*U
  1

  0
ENDBLK
  5
21
330
1F
100
AcDbEntity
  8
0
100
AcDbBlockEnd
  0
BLOCK
  5
57
330
55
100
AcDbEntity
 67
     1
  8
0
100
AcDbBlockBegin
  2
*PAPER_SPACE
 70
     0
 10
0.0
 20
0.0
 30
0.0
  3
*PAPER_SPACE
  1

  0
ENDBLK
  5
58
330
55
100
AcDbEntity
 67
     1
  8
0
100
AcDbBlockEnd
  0
BLOCK
  5
17E
330
17D
100
AcDbEntity
  8
0
100
AcDbBlockBegin
  2
BLOKO
 70
     2
 10
0.0
 20
0.0
 30
0.0
  3
BLOKO
  1

  0
LINE
  5
18B
330
17D
100
AcDbEntity
  8
TAVOLO_3
100
AcDbLine
 10
271.5499812899507
 20
828.2739297568769
 30
0.0
 11
398.7234623457189
 21
91.25601042459311
 31
0.0
  0
LINE
  5
18C
330
17D
100
AcDbEntity
  8
TAVOLO_3
100
AcDbLine
 10
398.7234623457189
 20
91.25601042459311
 30
0.0
 11
-237.1440554753863
 21
167.4992462186237
 31
0.0
  0
LINE
  5
18D
330
17D
100
AcDbEntity
  8
TAVOLO_3
100
AcDbLine
 10
-237.1440554753863
 20
167.4992462186237
 30
0.0
 11
-313.4481441088501
 21
752.0306939628463
 31
0.0
  0
LINE
  5
18E
330
17D
100
AcDbEntity
  8
TAVOLO_3
100
AcDbLine
 10
-313.4481441088501
 20
752.0306939628463
 30
0.0
 11
-745.8380547266424
 21
777.4451125633605
 31
0.0
  0
ATTDEF
  5
18F
330
17D
100
AcDbEntity
  8
TAVOLO_3
100
AcDbText
 10
-289.2176873757489
 20
-218.0545607604727
 30
0.0
 40
100.0
  1
valoro
100
AcDbAttributeDefinition
  3
invitilo
  2
ETIKEDO
 70
     0
  0
ENDBLK
  5
17F
330
17D
100
AcDbEntity
  8
0
100
AcDbBlockEnd
  0
BLOCK
  5
1B9
330
1B8
100
AcDbEntity
  8
0
100
AcDbBlockBegin
  2
CIRKLO_PUNKTOJ
 70
     0
 10
0.0
 20
0.0
 30
0.0
  3
CIRKLO_PUNKTOJ
  1

  0
CIRCLE
  5
1BB
330
1B8
100
AcDbEntity
  8
TAVOLO_3
100
AcDbCircle
 10
0.0
 20
0.0
 30
0.0
 40
130.0490046078758
  0
POINT
  5
1BC
330
1B8
100
AcDbEntity
  8
TAVOLO_3
100
AcDbPoint
 10
-72.12776981049683
 20
-10.06474101899221
 30
0.0
  0
POINT
  5
1BD
330
1B8
100
AcDbEntity
  8
TAVOLO_3
100
AcDbPoint
 10
-35.36164146556985
 20
58.16075377925881
 30
0.0
  0
POINT
  5
1BE
330
1B8
100
AcDbEntity
  8
TAVOLO_3
100
AcDbPoint
 10
-30.10935083439108
 20
-20.56094401411247
 30
0.0
  0
POINT
  5
1BF
330
1B8
100
AcDbEntity
  8
TAVOLO_3
100
AcDbPoint
 10
-30.10935083439108
 20
16.17584161022387
 30
0.0
  0
POINT
  5
1C0
330
1B8
100
AcDbEntity
  8
TAVOLO_3
100
AcDbPoint
 10
32.91832459314901
 20
-10.06474101899221
 30
0.0
  0
POINT
  5
1C1
330
1B8
100
AcDbEntity
  8
TAVOLO_3
100
AcDbPoint
 10
11.90906814171467
 20
0.4315120704050059
 30
0.0
  0
POINT
  5
1C2
330
1B8
100
AcDbEntity
  8
TAVOLO_3
100
AcDbPoint
 10
17.16135877287888
 20
58.16075377925881
 30
0.0
  0
POINT
  5
1C3
330
1B8
100
AcDbEntity
  8
TAVOLO_3
100
AcDbPoint
 10
-93.13702626193117
 20
-46.80152664332854
 30
0.0
  0
POINT
  5
1C4
330
1B8
100
AcDbEntity
  8
TAVOLO_3
100
AcDbPoint
 10
69.68445293807599
 20
-46.80152664332854
 30
0.0
  0
POINT
  5
1C5
330
1B8
100
AcDbEntity
  8
TAVOLO_3
100
AcDbPoint
 10
-3.847803751792526
 20
-41.55340009862994
 30
0.0
  0
POINT
  5
1C6
330
1B8
100
AcDbEntity
  8
TAVOLO_3
100
AcDbPoint
 10
106.4505812830175
 20
5.679638615103613
 30
0.0
  0
POINT
  5
1C7
330
1B8
100
AcDbEntity
  8
TAVOLO_3
100
AcDbPoint
 10
-83.77055558058782
 20
22.38066858684761
 30
0.0
  0
ENDBLK
  5
1BA
330
1B8
100
AcDbEntity
  8
0
100
AcDbBlockEnd
  0
BLOCK
  5
381
330
380
100
AcDbEntity
  8
0
100
AcDbBlockBegin
  2
*D4
 70
     1
 10
0.0
 20
0.0
 30
0.0
  3
*D4
  1

  0
LINE
  5
383
330
380
100
AcDbEntity
  8
TAVOLO_3
 62
     0
100
AcDbLine
 10
-473.1585582593793
 20
10344.51494024668
 30
0.0
 11
623.7653224577175
 21
10025.90168707239
 31
0.0
  0
LINE
  5
384
330
380
100
AcDbEntity
  8
TAVOLO_3
 62
     0
100
AcDbLine
 10
-53.45455113515618
 20
11789.47475802104
 30
0.0
 11
1043.469329581941
 21
11470.86150484675
 31
0.0
  0
LINE
  5
385
330
380
100
AcDbEntity
  8
TAVOLO_3
 62
     0
100
AcDbLine
 10
623.262265317665
 20
10028.65112947292
 30
0.0
 11
1041.571609945546
 21
11468.80939369439
 31
0.0
  0
SOLID
  5
386
330
380
100
AcDbEntity
  8
TAVOLO_3
 62
     0
100
AcDbTrace
 10
622.8621358549244
 20
10028.76735134761
 30
0.0
 11
623.662394780406
 21
10028.53490759822
 31
0.0
 12
622.564934069494
 22
10026.25035269647
 32
0.0
 13
622.564934069494
 23
10026.25035269647
 33
0.0
  0
SOLID
  5
387
330
380
100
AcDbEntity
  8
TAVOLO_3
 62
     0
100
AcDbTrace
 10
1041.171480482806
 20
11468.92561556908
 30
0.0
 11
1041.971739408287
 21
11468.69317181969
 31
0.0
 12
1042.268941193717
 22
11471.21017047083
 32
0.0
 13
1042.268941193717
 23
11471.21017047083
 33
0.0
  0
MTEXT
  5
388
330
380
100
AcDbEntity
  8
TAVOLO_3
 62
     0
100
AcDbMText
 10
830.4162903178994
 20
10749.31137095713
 30
0.0
 40
2.5
 41
0.0
 71
     5
 72
     1
  1
1504,68
 11
0.2789324992683449
 21
0.9603107105785683
 31
0.0
  0
POINT
  5
389
330
380
100
AcDbEntity
  8
DEFPOINTS
 62
     0
100
AcDbPoint
 10
-473.7587524534906
 20
10344.68927305872
 30
1.0
  0
POINT
  5
38A
330
380
100
AcDbEntity
  8
DEFPOINTS
 62
     0
100
AcDbPoint
 10
-54.05474532926746
 20
11789.64909083308
 30
0.0
  0
POINT
  5
38B
330
380
100
AcDbEntity
  8
DEFPOINTS
 62
     0
100
AcDbPoint
 10
1042.268941193717
 20
11471.21017047083
 30
0.0
  0
ENDBLK
  5
382
330
380
100
AcDbEntity
  8
0
100
AcDbBlockEnd
  0
BLOCK
  5
39B
330
39A
100
AcDbEntity
  8
0
100
AcDbBlockBegin
  2
*D5
 70
     1
 10
0.0
 20
0.0
 30
0.0
  3
*D5
  1

  0
LINE
  5
3A9
330
39A
100
AcDbEntity
  8
TAVOLO_3
 62
     0
100
AcDbLine
 10
5486.971081423466
 20
2530.122579586646
 30
0.0
 11
5715.310745615378
 21
2877.811621253956
 31
0.0
  0
LINE
  5
3AA
330
39A
100
AcDbEntity
  8
TAVOLO_3
 62
     0
100
AcDbLine
 10
6247.366942682576
 20
3944.413068081676
 30
0.0
 11
6083.265889598454
 21
3562.186019960417
 31
0.0
  0
ARC
  5
3AB
330
39A
100
AcDbEntity
  8
TAVOLO_3
 62
     0
100
AcDbCircle
 10
5929.403601723592
 20
3203.807283161912
 30
0.0
 40
391.2614390878535
100
AcDbArc
 50
237.0717783317949
 51
66.39866519327494
  0
SOLID
  5
3AC
330
39A
100
AcDbEntity
  8
TAVOLO_3
 62
     